<svg version="1.1" id="Layer_1" xmlns="http://www.w3.org/2000/svg" xmlns:xlink="http://www.w3.org/1999/xlink" x="0px" y="0px"
	 width="100%" viewBox="0 0 671 566" enable-background="new 0 0 671 566" xml:space="preserve">
<path fill="#EE3124" opacity="1.000000" stroke="none" 
	d="
M0.999999,566.000000 
	C1.000000,378.307495 1.000000,190.615005 1.459705,2.461255 
	C222.760864,2.000000 443.602325,1.999644 664.443787,2.005155 
	C666.606873,2.005209 668.770020,2.083013 670.962097,2.584562 
	C670.991089,190.461044 670.991089,377.877472 670.991089,565.683411 
	C668.210388,565.683411 666.072388,565.683472 663.934387,565.683472 
	C445.277222,565.683472 226.620041,565.682495 7.962876,565.696533 
	C5.641911,565.696655 3.320957,565.894409 0.999999,566.000000 
M583.879456,323.496368 
	C583.579773,323.409546 583.280090,323.322693 582.051575,323.124054 
	C518.835999,323.117279 455.620422,323.114594 392.404846,323.096863 
	C386.585632,323.095215 380.766449,322.997620 375.000580,322.998383 
	C375.000580,322.998383 375.054230,323.051880 374.920532,322.116333 
	C374.964417,296.059814 375.008301,270.003296 374.998596,244.000397 
	C374.998596,244.000397 374.945007,244.054031 375.880951,243.920517 
	C422.457367,243.912430 469.033813,243.916885 515.610229,243.890839 
	C538.064453,243.878265 560.518738,243.808212 583.490234,243.872314 
	C583.605286,243.575897 583.720398,243.279495 583.978027,242.057510 
	C583.978027,216.284988 583.978027,190.512451 583.978027,164.197754 
	C514.044434,164.197754 444.657104,164.197754 374.896271,164.197754 
	C374.896271,161.860214 374.896271,160.054398 374.896271,158.248566 
	C374.896271,137.082977 374.897156,115.917397 374.895782,94.751808 
	C374.895355,88.295959 374.892517,88.290710 368.339630,88.290627 
	C274.177765,88.289474 180.015900,88.289841 85.854027,88.289848 
	C84.091293,88.289848 82.328568,88.289848 80.651657,88.289848 
	C80.651657,218.860001 80.651657,348.759766 80.651657,478.896271 
	C82.837357,478.896271 84.661865,478.896301 86.486374,478.896301 
	C126.984306,478.896301 167.482239,478.896301 207.980179,478.896301 
	C261.310791,478.896301 314.641418,478.896515 367.972046,478.895966 
	C374.894745,478.895874 374.895477,478.894012 374.896088,471.748199 
	C374.896851,462.748657 374.975311,453.748260 374.877991,444.749756 
	C374.727264,430.812683 374.456146,416.876862 374.725037,402.925690 
	C374.725037,402.925690 375.213898,402.907684 376.111267,402.746613 
	C445.329041,402.746613 514.546814,402.746613 583.836304,402.746613 
	C583.836304,375.974335 583.836304,349.999054 583.879456,323.496368 
z"/>
<path fill="#FFFFFF" opacity="1.000000" stroke="none" 
	d="
M0.999999,566.500000 
	C3.320957,565.894409 5.641911,565.696655 7.962876,565.696533 
	C226.620041,565.682495 445.277222,565.683472 663.934387,565.683472 
	C666.072388,565.683472 668.210388,565.683411 670.991089,565.683411 
	C670.991089,377.877472 670.991089,190.461044 670.986816,2.303910 
	C670.988342,1.375476 670.994141,1.187738 671.000000,1.000004 
	C671.333313,1.166675 671.943787,1.315931 671.955566,1.502802 
	C672.039001,2.830884 672.000000,4.166667 672.000000,5.500000 
	C672.000000,192.666672 672.000000,379.833344 672.000000,567.000000 
	C448.333344,567.000000 224.666672,567.000000 0.999999,566.500000 
z"/>
<path fill="#FBDBDA" opacity="1.000000" stroke="none" 
	d="
M670.540283,1.000000 
	C670.994141,1.187738 670.988342,1.375476 670.957886,1.843867 
	C668.770020,2.083013 666.606873,2.005209 664.443787,2.005155 
	C443.602325,1.999644 222.760864,2.000000 1.459705,2.000000 
	C1.166354,1.666667 1.315290,1.056178 1.501855,1.044453 
	C2.829113,0.961042 4.164060,1.000000 5.496560,1.000000 
	C227.024567,1.000000 448.552551,1.000000 670.540283,1.000000 
z"/>
<path fill="#FFFFFF" opacity="1.000000" stroke="none" 
	d="
M375.052185,243.946793 
	C375.008301,270.003296 374.964417,296.059814 374.516876,322.540436 
	C304.723389,322.964539 235.333542,322.964539 166.093262,322.964539 
	C166.093262,349.877411 166.093262,376.095093 166.093262,402.683380 
	C168.446732,402.683380 170.421127,402.683411 172.395523,402.683411 
	C237.684860,402.683411 302.974182,402.681091 368.263519,402.694122 
	C370.254364,402.694550 372.245239,402.854797 374.236084,402.940491 
	C374.456146,416.876862 374.727264,430.812683 374.877991,444.749756 
	C374.975311,453.748260 374.896851,462.748657 374.896088,471.748199 
	C374.895477,478.894012 374.894745,478.895874 367.972046,478.895966 
	C314.641418,478.896515 261.310791,478.896301 207.980179,478.896301 
	C167.482239,478.896301 126.984306,478.896301 86.486374,478.896301 
	C84.661865,478.896301 82.837357,478.896271 80.651657,478.896271 
	C80.651657,348.759766 80.651657,218.860001 80.651657,88.289848 
	C82.328568,88.289848 84.091293,88.289848 85.854027,88.289848 
	C180.015900,88.289841 274.177765,88.289474 368.339630,88.290627 
	C374.892517,88.290710 374.895355,88.295959 374.895782,94.751808 
	C374.897156,115.917397 374.896271,137.082977 374.896271,158.248566 
	C374.896271,160.054398 374.896271,161.860214 374.896271,164.197754 
	C444.657104,164.197754 514.044434,164.197754 583.978027,164.197754 
	C583.978027,190.512451 583.978027,216.284988 583.735962,242.619415 
	C583.265198,243.326401 583.091553,243.520676 582.972961,243.764160 
	C560.518738,243.808212 538.064453,243.878265 515.610229,243.890839 
	C469.033813,243.916885 422.457367,243.912430 375.458008,243.516937 
	C375.035065,217.044373 375.035065,190.975388 375.035065,164.614594 
	C304.902130,164.614594 235.520752,164.614594 165.990601,164.614594 
	C165.990601,191.129715 165.990601,217.359802 165.990601,243.946793 
	C235.864288,243.946793 305.458221,243.946793 375.052185,243.946793 
z"/>
<path fill="#EE3124" opacity="1.000000" stroke="none" 
	d="
M374.480560,402.933105 
	C372.245239,402.854797 370.254364,402.694550 368.263519,402.694122 
	C302.974182,402.681091 237.684860,402.683411 172.395523,402.683411 
	C170.421127,402.683411 168.446732,402.683380 166.093262,402.683380 
	C166.093262,376.095093 166.093262,349.877411 166.093262,322.964539 
	C235.333542,322.964539 304.723389,322.964539 374.583740,323.008209 
	C375.054230,323.051880 375.000580,322.998383 375.018005,323.441895 
	C375.094940,350.226166 375.154419,376.566925 375.213898,402.907684 
	C375.213898,402.907684 374.725037,402.925690 374.480560,402.933105 
z"/>
<path fill="#FFFFFF" opacity="1.000000" stroke="none" 
	d="
M375.662598,402.827148 
	C375.154419,376.566925 375.094940,350.226166 374.991333,323.414978 
	C380.766449,322.997620 386.585632,323.095215 392.404846,323.096863 
	C455.620422,323.114594 518.835999,323.117279 582.624146,323.345001 
	C583.383423,323.755554 583.596619,323.908142 583.836304,324.023743 
	C583.836304,349.999054 583.836304,375.974335 583.836304,402.746613 
	C514.546814,402.746613 445.329041,402.746613 375.662598,402.827148 
z"/>
<path fill="#FBDBDA" opacity="1.000000" stroke="none" 
	d="
M583.231567,243.818237 
	C583.091553,243.520676 583.265198,243.326401 583.664673,243.082214 
	C583.720398,243.279495 583.605286,243.575897 583.231567,243.818237 
z"/>
<path fill="#FBDBDA" opacity="1.000000" stroke="none" 
	d="
M583.857910,323.760071 
	C583.596619,323.908142 583.383423,323.755554 583.088562,323.400879 
	C583.280090,323.322693 583.579773,323.409546 583.857910,323.760071 
z"/>
<path fill="#EE3124" opacity="1.000000" stroke="none" 
	d="
M375.025391,243.973602 
	C305.458221,243.946793 235.864288,243.946793 165.990601,243.946793 
	C165.990601,217.359802 165.990601,191.129715 165.990601,164.614594 
	C235.520752,164.614594 304.902130,164.614594 375.035065,164.614594 
	C375.035065,190.975388 375.035065,217.044373 374.990051,243.583710 
	C374.945007,244.054031 374.998596,244.000397 375.025391,243.973602 
z"/>
</svg>